<svg version="1.2" xmlns="http://www.w3.org/2000/svg" viewBox="0 0 4000 2494" width="112" height="70">
	<title>olive-high-resolution-logo-transparent-pdf</title>
	<defs>
		<clipPath clipPathUnits="userSpaceOnUse" id="cp1">
			<path d="m0 0h4000v2494h-4000z"/>
		</clipPath>
	</defs>
	<style>
		.s0 { fill: #e1e587 } 
	</style>
	<g id="Page 1" clip-path="url(#cp1)">
		<path id="Path 2" fill-rule="evenodd" class="s0" d="m1111.9 1301.6q-166.8 0-257.5-87.5-90.8-87.5-90.8-279.9 0-192.4 90.8-279.9 90.7-87.5 257.5-87.5 166.9 0 257.7 87.5 90.6 87.5 90.6 279.9 0 192.4-90.6 279.9-90.8 87.5-257.7 87.5zm0-162.3q31 0 46.5-16.4 15.5-16.4 15.5-51v-275.4q0-34.6-15.5-51-15.5-16.4-46.5-16.4-31 0-46.5 16.4-15.5 16.4-15.5 51v275.4q0 35.5 15.5 51.4 15.5 16 46.5 16zm667.4 150.5h-289.9v-150.5h40.1v-410.2h-40.1v-149.6h249.8v559.8h40.1zm258.8-557.9h-185.9v-152.3h185.9zm60.3 557.1h-289.9v-149.6h40.1v-207.8h-40.1v-149.6h249.8v357.4h40.1zm442.9 0h-271.7l-114.8-357.4h-38.3v-149.5h281.7v149.5h-38.3l48.3 180.6h9.1l48.4-180.6h-38.3v-149.5h264.4v149.5h-38.3zm447.6 12.8q-129.4 0-202.4-68-72.9-67.8-72.9-198.2 0-130.4 72.9-198.4 73-67.8 202.4-67.8 128.6 0 185.7 66.9 56.9 67.1 56.9 166.5v65.6h-295.4v5.5q0 33.7 20 49.6 20.1 16 66.6 16 55.6 0 105.7-8.2 50.2-8.2 87.6-21v145.9q-32 17.3-93.4 31.4-61.6 14.2-133.7 14.2zm-52.8-333.7h105.7v-10.9q0-31-13.1-44.7-13.3-13.7-39.8-13.7-26.4 0-39.5 14.1-13.3 14.2-13.3 44.3z"/>
		<path id="Path 3" fill-rule="evenodd" class="s0" d="m958.4 1589.6q84 0 84 81.6v177.4h-102.5v-232q-4.3-2.9-11.4-2.9-7 0-14.7 3.3-7.6 3.4-15.9 9.4-17.9 13.1-31.8 32.9v189.3h-102.6v-337.5h102.6v123.1q40.9-44.6 92.3-44.6zm333.6 259v-15.7q-30.6 20.2-67.8 20.2-49.4 0-79.2-24.8-30.9-25.5-30.9-70.8 0-40.1 30.7-65.8 31.5-26.1 82.8-26.1 34.3 0 64.4 13.2v-65.6q-21.7-6.2-38.3-6.2-16.6 0-28.1 1.5-11.4 1.4-21.6 4.2-22.2 6.2-33.7 16.7-6.7 6.2-12.2 6.2-5.4 0-8.3-2.7-2.9-2.7-2.9-6.1 0-3.4 1.3-6.1 1.1-2.7 4.5-5.6 7.1-6.2 23.8-12.4 34.6-13.1 69.5-13.1 105.9 0 135.2 50.5 12.9 22.5 12.9 59v149.5zm0-36.2v-115q-30.1-14.6-59.9-14.6-4.8 0-9.1 0.8v151.6q1.2 0.3 2.6 0.3 1.5 0 2.9 0 32.7 0 63.5-23.1zm350.9 40.7q-33.1 0-64.2-14.9v86.7h-98v-331h98v13.1q31.3-17.4 63.9-17.4 32.7 0 57.7 9.8 25.1 9.8 43 27 36.9 36.2 36.9 92.7 0 57-36.4 94.7-37.7 39.3-100.9 39.3zm-0.7-246.1q-35.4 0-63.5 19.6v190.3q32.2 18.6 70.1 18.6h6.2q2.9 0 5.6-0.5v-226.5q-9.1-1.5-18.4-1.5zm373.3 246.1q-33.1 0-64.2-14.9v86.7h-98v-331h98v13.1q31.3-17.4 64-17.4 32.6 0 57.6 9.8 25.1 9.8 43 27 36.9 36.2 36.9 92.7 0 57-36.4 94.7-37.7 39.3-100.9 39.3zm-0.7-246.1q-35.4 0-63.5 19.6v190.3q32.2 18.6 70.1 18.6h6.3q2.8 0 5.5-0.5v-226.5q-9.1-1.5-18.4-1.5zm255.5 297.9q14.5-4.5 20.3-11.6 8.1-9.6 19.5-34.4l5.5-12.6-129.9-252.4h108.4l67.8 144 39.1-91.3q10.7-25 14.1-38.1 3.3-13.2 6.5-16 3.2-2.9 7.9-2.9 4.6 0 7.3 2.9 2.6 2.8 2.6 5.7 0 2.9-0.6 6.1-0.6 3.2-2.3 8.6-1.9 5.4-5.2 13.5l-99 229.4q-17.7 41.5-33.9 58.4-13.8 15-28 15-14.2 0-14.2-9.8 0-9.9 14.1-14.5zm321.4-185q0-28.7 10.3-52.2 10.5-23.5 28.6-40.9 39.2-37.2 98.3-37.2 60.3 0 98.2 38.6 36.3 36.6 36.3 92.3 0 56.1-37.2 93.7-38.4 38.9-98.3 38.9-58.4 0-96.8-36.9-39.4-38.2-39.4-96.3zm129.5-112.7v228q1.9 0.3 3.8 0.3h3.4q48.1 0 80.9-29.8 34.7-32.2 34.7-84.5 0-51-32.6-82.7-32.2-31.5-83.2-31.5h-3.6q-1.7 0-3.4 0.2zm265.4-55.1q-24.6 0-38.5-10.9-13.8-11-13.8-28.8 0-15.1 15.2-25.8 16.3-11.5 34.4-11.5 18.1 0 28.1 3.6 9.8 3.6 16.8 9.3 13.8 11.7 13.8 27.2 0 15.5-15.8 26.2-15.7 10.7-40.2 10.7zm-50.1 296.5v-254.7h102.5v254.7zm192.6 0v-337.5h102.6v337.5z"/>
		<path id="Path 4" class="s0" d="m2514.7 506.2v-506.2h-2496.1v2496h2496.1v-506.2h-66.3v439.9l-2363.5 0.1v-2363.5h2363.5v439.9z"/>
	</g>
</svg>